<svg width="87" height="80" viewBox="0 0 87 80" fill="none" xmlns="http://www.w3.org/2000/svg">
<g opacity="0.3">
<mask id="mask0_1_11" style="mask-type:alpha" maskUnits="userSpaceOnUse" x="0" y="0" width="9" height="10">
<path d="M4.58896 9.00483C6.75662 9.00483 8.51386 7.1942 8.51386 4.96073C8.51386 2.72726 6.75662 0.916687 4.58896 0.916687C2.4213 0.916687 0.664062 2.72726 0.664062 4.96073C0.664062 7.1942 2.4213 9.00483 4.58896 9.00483Z" fill="url(#paint0_linear_1_11)"/>
</mask>
<g mask="url(#mask0_1_11)">
<path d="M4.58896 9.00483C6.75662 9.00483 8.51386 7.1942 8.51386 4.96073C8.51386 2.72726 6.75662 0.916687 4.58896 0.916687C2.4213 0.916687 0.664062 2.72726 0.664062 4.96073C0.664062 7.1942 2.4213 9.00483 4.58896 9.00483Z" fill="url(#paint1_linear_1_11)"/>
</g>
<mask id="mask1_1_11" style="mask-type:alpha" maskUnits="userSpaceOnUse" x="23" y="0" width="9" height="10">
<path d="M27.3203 9.00481C29.488 9.00481 31.2452 7.19419 31.2452 4.96071C31.2452 2.72724 29.488 0.916668 27.3203 0.916668C25.1526 0.916668 23.3954 2.72724 23.3954 4.96071C23.3954 7.19419 25.1526 9.00481 27.3203 9.00481Z" fill="url(#paint2_linear_1_11)"/>
</mask>
<g mask="url(#mask1_1_11)">
<path d="M27.3207 9.00481C29.4883 9.00481 31.2456 7.19419 31.2456 4.96071C31.2456 2.72724 29.4883 0.916668 27.3207 0.916668C25.153 0.916668 23.3958 2.72724 23.3958 4.96071C23.3958 7.19419 25.153 9.00481 27.3207 9.00481Z" fill="url(#paint3_linear_1_11)"/>
</g>
<mask id="mask2_1_11" style="mask-type:alpha" maskUnits="userSpaceOnUse" x="46" y="0" width="8" height="10">
<path d="M50.0516 9.00481C52.2193 9.00481 53.9765 7.19419 53.9765 4.96071C53.9765 2.72724 52.2193 0.916668 50.0516 0.916668C47.8839 0.916668 46.1267 2.72724 46.1267 4.96071C46.1267 7.19419 47.8839 9.00481 50.0516 9.00481Z" fill="url(#paint4_linear_1_11)"/>
</mask>
<g mask="url(#mask2_1_11)">
<path d="M50.0523 9.00481C52.22 9.00481 53.9772 7.19419 53.9772 4.96071C53.9772 2.72724 52.22 0.916668 50.0523 0.916668C47.8847 0.916668 46.1274 2.72724 46.1274 4.96071C46.1274 7.19419 47.8847 9.00481 50.0523 9.00481Z" fill="url(#paint5_linear_1_11)"/>
</g>
<mask id="mask3_1_11" style="mask-type:alpha" maskUnits="userSpaceOnUse" x="68" y="0" width="9" height="10">
<path d="M72.7828 9.00481C74.9505 9.00481 76.7077 7.19419 76.7077 4.96071C76.7077 2.72724 74.9505 0.916668 72.7828 0.916668C70.6152 0.916668 68.8579 2.72724 68.8579 4.96071C68.8579 7.19419 70.6152 9.00481 72.7828 9.00481Z" fill="url(#paint6_linear_1_11)"/>
</mask>
<g mask="url(#mask3_1_11)">
<path d="M72.7834 9.00481C74.9511 9.00481 76.7083 7.19419 76.7083 4.96071C76.7083 2.72724 74.9511 0.916668 72.7834 0.916668C70.6158 0.916668 68.8585 2.72724 68.8585 4.96071C68.8585 7.19419 70.6158 9.00481 72.7834 9.00481Z" fill="url(#paint7_linear_1_11)"/>
</g>
<mask id="mask4_1_11" style="mask-type:alpha" maskUnits="userSpaceOnUse" x="0" y="21" width="9" height="9">
<path d="M4.58896 29.3093C6.75662 29.3093 8.51386 27.4987 8.51386 25.2652C8.51386 23.0318 6.75662 21.2212 4.58896 21.2212C2.4213 21.2212 0.664062 23.0318 0.664062 25.2652C0.664062 27.4987 2.4213 29.3093 4.58896 29.3093Z" fill="url(#paint8_linear_1_11)"/>
</mask>
<g mask="url(#mask4_1_11)">
<path d="M4.58896 29.3093C6.75662 29.3093 8.51386 27.4988 8.51386 25.2653C8.51386 23.0318 6.75662 21.2213 4.58896 21.2213C2.4213 21.2213 0.664062 23.0318 0.664062 25.2653C0.664062 27.4988 2.4213 29.3093 4.58896 29.3093Z" fill="url(#paint9_linear_1_11)"/>
</g>
<mask id="mask5_1_11" style="mask-type:alpha" maskUnits="userSpaceOnUse" x="23" y="21" width="9" height="9">
<path d="M27.3203 29.3094C29.488 29.3094 31.2452 27.4988 31.2452 25.2653C31.2452 23.0319 29.488 21.2213 27.3203 21.2213C25.1526 21.2213 23.3954 23.0319 23.3954 25.2653C23.3954 27.4988 25.1526 29.3094 27.3203 29.3094Z" fill="url(#paint10_linear_1_11)"/>
</mask>
<g mask="url(#mask5_1_11)">
<path d="M27.3207 29.3093C29.4883 29.3093 31.2456 27.4987 31.2456 25.2653C31.2456 23.0318 29.4883 21.2212 27.3207 21.2212C25.153 21.2212 23.3958 23.0318 23.3958 25.2653C23.3958 27.4987 25.153 29.3093 27.3207 29.3093Z" fill="url(#paint11_linear_1_11)"/>
</g>
<mask id="mask6_1_11" style="mask-type:alpha" maskUnits="userSpaceOnUse" x="46" y="21" width="8" height="9">
<path d="M50.0516 29.3094C52.2193 29.3094 53.9765 27.4988 53.9765 25.2653C53.9765 23.0319 52.2193 21.2213 50.0516 21.2213C47.8839 21.2213 46.1267 23.0319 46.1267 25.2653C46.1267 27.4988 47.8839 29.3094 50.0516 29.3094Z" fill="url(#paint12_linear_1_11)"/>
</mask>
<g mask="url(#mask6_1_11)">
<path d="M50.0523 29.3093C52.22 29.3093 53.9772 27.4987 53.9772 25.2653C53.9772 23.0318 52.22 21.2212 50.0523 21.2212C47.8847 21.2212 46.1274 23.0318 46.1274 25.2653C46.1274 27.4987 47.8847 29.3093 50.0523 29.3093Z" fill="url(#paint13_linear_1_11)"/>
</g>
<mask id="mask7_1_11" style="mask-type:alpha" maskUnits="userSpaceOnUse" x="68" y="21" width="9" height="9">
<path d="M72.7828 29.3094C74.9505 29.3094 76.7077 27.4988 76.7077 25.2653C76.7077 23.0319 74.9505 21.2213 72.7828 21.2213C70.6152 21.2213 68.8579 23.0319 68.8579 25.2653C68.8579 27.4988 70.6152 29.3094 72.7828 29.3094Z" fill="url(#paint14_linear_1_11)"/>
</mask>
<g mask="url(#mask7_1_11)">
<path d="M72.7834 29.3093C74.9511 29.3093 76.7083 27.4987 76.7083 25.2653C76.7083 23.0318 74.9511 21.2212 72.7834 21.2212C70.6158 21.2212 68.8585 23.0318 68.8585 25.2653C68.8585 27.4987 70.6158 29.3093 72.7834 29.3093Z" fill="url(#paint15_linear_1_11)"/>
</g>
<mask id="mask8_1_11" style="mask-type:alpha" maskUnits="userSpaceOnUse" x="0" y="41" width="9" height="9">
<path d="M4.58896 49.5718C6.75662 49.5718 8.51386 47.7613 8.51386 45.5278C8.51386 43.2943 6.75662 41.4837 4.58896 41.4837C2.4213 41.4837 0.664062 43.2943 0.664062 45.5278C0.664062 47.7613 2.4213 49.5718 4.58896 49.5718Z" fill="url(#paint16_linear_1_11)"/>
</mask>
<g mask="url(#mask8_1_11)">
<path d="M4.58896 49.5719C6.75662 49.5719 8.51386 47.7614 8.51386 45.5279C8.51386 43.2944 6.75662 41.4838 4.58896 41.4838C2.4213 41.4838 0.664062 43.2944 0.664062 45.5279C0.664062 47.7614 2.4213 49.5719 4.58896 49.5719Z" fill="url(#paint17_linear_1_11)"/>
</g>
<mask id="mask9_1_11" style="mask-type:alpha" maskUnits="userSpaceOnUse" x="23" y="41" width="9" height="9">
<path d="M27.3203 49.5721C29.488 49.5721 31.2452 47.7616 31.2452 45.5281C31.2452 43.2946 29.488 41.484 27.3203 41.484C25.1526 41.484 23.3954 43.2946 23.3954 45.5281C23.3954 47.7616 25.1526 49.5721 27.3203 49.5721Z" fill="url(#paint18_linear_1_11)"/>
</mask>
<g mask="url(#mask9_1_11)">
<path d="M27.3207 49.5719C29.4883 49.5719 31.2456 47.7614 31.2456 45.5279C31.2456 43.2944 29.4883 41.4838 27.3207 41.4838C25.153 41.4838 23.3958 43.2944 23.3958 45.5279C23.3958 47.7614 25.153 49.5719 27.3207 49.5719Z" fill="url(#paint19_linear_1_11)"/>
</g>
<mask id="mask10_1_11" style="mask-type:alpha" maskUnits="userSpaceOnUse" x="46" y="41" width="8" height="9">
<path d="M50.0516 49.5721C52.2193 49.5721 53.9765 47.7616 53.9765 45.5281C53.9765 43.2946 52.2193 41.484 50.0516 41.484C47.8839 41.484 46.1267 43.2946 46.1267 45.5281C46.1267 47.7616 47.8839 49.5721 50.0516 49.5721Z" fill="url(#paint20_linear_1_11)"/>
</mask>
<g mask="url(#mask10_1_11)">
<path d="M50.0523 49.5719C52.22 49.5719 53.9772 47.7613 53.9772 45.5278C53.9772 43.2944 52.22 41.4838 50.0523 41.4838C47.8847 41.4838 46.1274 43.2944 46.1274 45.5278C46.1274 47.7613 47.8847 49.5719 50.0523 49.5719Z" fill="url(#paint21_linear_1_11)"/>
</g>
<mask id="mask11_1_11" style="mask-type:alpha" maskUnits="userSpaceOnUse" x="68" y="41" width="9" height="9">
<path d="M72.7828 49.5721C74.9505 49.5721 76.7077 47.7616 76.7077 45.5281C76.7077 43.2946 74.9505 41.484 72.7828 41.484C70.6152 41.484 68.8579 43.2946 68.8579 45.5281C68.8579 47.7616 70.6152 49.5721 72.7828 49.5721Z" fill="url(#paint22_linear_1_11)"/>
</mask>
<g mask="url(#mask11_1_11)">
<path d="M72.7834 49.5719C74.9511 49.5719 76.7083 47.7613 76.7083 45.5278C76.7083 43.2944 74.9511 41.4838 72.7834 41.4838C70.6158 41.4838 68.8585 43.2944 68.8585 45.5278C68.8585 47.7613 70.6158 49.5719 72.7834 49.5719Z" fill="url(#paint23_linear_1_11)"/>
</g>
<mask id="mask12_1_11" style="mask-type:alpha" maskUnits="userSpaceOnUse" x="0" y="61" width="9" height="9">
<path d="M4.58896 69.8768C6.75662 69.8768 8.51386 68.0662 8.51386 65.8327C8.51386 63.5992 6.75662 61.7886 4.58896 61.7886C2.4213 61.7886 0.664062 63.5992 0.664062 65.8327C0.664062 68.0662 2.4213 69.8768 4.58896 69.8768Z" fill="url(#paint24_linear_1_11)"/>
</mask>
<g mask="url(#mask12_1_11)">
<path d="M4.58896 69.8765C6.75662 69.8765 8.51386 68.0659 8.51386 65.8324C8.51386 63.599 6.75662 61.7884 4.58896 61.7884C2.4213 61.7884 0.664062 63.599 0.664062 65.8324C0.664062 68.0659 2.4213 69.8765 4.58896 69.8765Z" fill="url(#paint25_linear_1_11)"/>
</g>
<mask id="mask13_1_11" style="mask-type:alpha" maskUnits="userSpaceOnUse" x="23" y="61" width="9" height="9">
<path d="M27.3203 69.8768C29.488 69.8768 31.2452 68.0662 31.2452 65.8327C31.2452 63.5992 29.488 61.7886 27.3203 61.7886C25.1526 61.7886 23.3954 63.5992 23.3954 65.8327C23.3954 68.0662 25.1526 69.8768 27.3203 69.8768Z" fill="url(#paint26_linear_1_11)"/>
</mask>
<g mask="url(#mask13_1_11)">
<path d="M27.3207 69.8765C29.4883 69.8765 31.2456 68.0659 31.2456 65.8324C31.2456 63.599 29.4883 61.7884 27.3207 61.7884C25.153 61.7884 23.3958 63.599 23.3958 65.8324C23.3958 68.0659 25.153 69.8765 27.3207 69.8765Z" fill="url(#paint27_linear_1_11)"/>
</g>
<mask id="mask14_1_11" style="mask-type:alpha" maskUnits="userSpaceOnUse" x="46" y="61" width="8" height="9">
<path d="M50.0516 69.8768C52.2193 69.8768 53.9765 68.0662 53.9765 65.8327C53.9765 63.5992 52.2193 61.7886 50.0516 61.7886C47.8839 61.7886 46.1267 63.5992 46.1267 65.8327C46.1267 68.0662 47.8839 69.8768 50.0516 69.8768Z" fill="url(#paint28_linear_1_11)"/>
</mask>
<g mask="url(#mask14_1_11)">
<path d="M50.0523 69.8765C52.22 69.8765 53.9772 68.0659 53.9772 65.8324C53.9772 63.5989 52.22 61.7883 50.0523 61.7883C47.8847 61.7883 46.1274 63.5989 46.1274 65.8324C46.1274 68.0659 47.8847 69.8765 50.0523 69.8765Z" fill="url(#paint29_linear_1_11)"/>
</g>
<mask id="mask15_1_11" style="mask-type:alpha" maskUnits="userSpaceOnUse" x="68" y="61" width="9" height="9">
<path d="M72.7828 69.8768C74.9505 69.8768 76.7077 68.0662 76.7077 65.8327C76.7077 63.5992 74.9505 61.7886 72.7828 61.7886C70.6152 61.7886 68.8579 63.5992 68.8579 65.8327C68.8579 68.0662 70.6152 69.8768 72.7828 69.8768Z" fill="url(#paint30_linear_1_11)"/>
</mask>
<g mask="url(#mask15_1_11)">
<path d="M72.7834 69.8765C74.9511 69.8765 76.7083 68.0659 76.7083 65.8324C76.7083 63.5989 74.9511 61.7883 72.7834 61.7883C70.6158 61.7883 68.8585 63.5989 68.8585 65.8324C68.8585 68.0659 70.6158 69.8765 72.7834 69.8765Z" fill="url(#paint31_linear_1_11)"/>
</g>
</g>
<defs>
<linearGradient id="paint0_linear_1_11" x1="38.8888" y1="94.6717" x2="-17.8474" y2="-45.107" gradientUnits="userSpaceOnUse">
<stop stop-color="#FFA434"/>
<stop offset="1" stop-color="#FFA434"/>
</linearGradient>
<linearGradient id="paint1_linear_1_11" x1="38.8888" y1="94.6717" x2="-17.8474" y2="-45.107" gradientUnits="userSpaceOnUse">
<stop stop-color="#FFA434"/>
<stop offset="1" stop-color="#FFA434"/>
</linearGradient>
<linearGradient id="paint2_linear_1_11" x1="61.6201" y1="94.6717" x2="4.884" y2="-45.1071" gradientUnits="userSpaceOnUse">
<stop stop-color="#FFA434"/>
<stop offset="1" stop-color="#FFA434"/>
</linearGradient>
<linearGradient id="paint3_linear_1_11" x1="61.6205" y1="94.6717" x2="4.88436" y2="-45.1071" gradientUnits="userSpaceOnUse">
<stop stop-color="#FFA434"/>
<stop offset="1" stop-color="#FFA434"/>
</linearGradient>
<linearGradient id="paint4_linear_1_11" x1="84.3515" y1="94.6717" x2="27.6153" y2="-45.1071" gradientUnits="userSpaceOnUse">
<stop stop-color="#FFA434"/>
<stop offset="1" stop-color="#FFA434"/>
</linearGradient>
<linearGradient id="paint5_linear_1_11" x1="84.3522" y1="94.6717" x2="27.6161" y2="-45.1071" gradientUnits="userSpaceOnUse">
<stop stop-color="#FFA434"/>
<stop offset="1" stop-color="#FFA434"/>
</linearGradient>
<linearGradient id="paint6_linear_1_11" x1="107.083" y1="94.6717" x2="50.3465" y2="-45.1071" gradientUnits="userSpaceOnUse">
<stop stop-color="#FFA434"/>
<stop offset="1" stop-color="#FFA434"/>
</linearGradient>
<linearGradient id="paint7_linear_1_11" x1="107.083" y1="94.6717" x2="50.3471" y2="-45.1071" gradientUnits="userSpaceOnUse">
<stop stop-color="#FFA434"/>
<stop offset="1" stop-color="#FFA434"/>
</linearGradient>
<linearGradient id="paint8_linear_1_11" x1="38.8888" y1="114.975" x2="-17.8465" y2="-24.8024" gradientUnits="userSpaceOnUse">
<stop stop-color="#FFA434"/>
<stop offset="1" stop-color="#FFA434"/>
</linearGradient>
<linearGradient id="paint9_linear_1_11" x1="38.8888" y1="114.975" x2="-17.8465" y2="-24.8023" gradientUnits="userSpaceOnUse">
<stop stop-color="#FFA434"/>
<stop offset="1" stop-color="#FFA434"/>
</linearGradient>
<linearGradient id="paint10_linear_1_11" x1="61.6201" y1="114.975" x2="4.88496" y2="-24.8023" gradientUnits="userSpaceOnUse">
<stop stop-color="#FFA434"/>
<stop offset="1" stop-color="#FFA434"/>
</linearGradient>
<linearGradient id="paint11_linear_1_11" x1="61.6205" y1="114.975" x2="4.88533" y2="-24.8024" gradientUnits="userSpaceOnUse">
<stop stop-color="#FFA434"/>
<stop offset="1" stop-color="#FFA434"/>
</linearGradient>
<linearGradient id="paint12_linear_1_11" x1="84.3515" y1="114.975" x2="27.6163" y2="-24.8023" gradientUnits="userSpaceOnUse">
<stop stop-color="#FFA434"/>
<stop offset="1" stop-color="#FFA434"/>
</linearGradient>
<linearGradient id="paint13_linear_1_11" x1="84.3522" y1="114.975" x2="27.617" y2="-24.8024" gradientUnits="userSpaceOnUse">
<stop stop-color="#FFA434"/>
<stop offset="1" stop-color="#FFA434"/>
</linearGradient>
<linearGradient id="paint14_linear_1_11" x1="107.083" y1="114.975" x2="50.3475" y2="-24.8023" gradientUnits="userSpaceOnUse">
<stop stop-color="#FFA434"/>
<stop offset="1" stop-color="#FFA434"/>
</linearGradient>
<linearGradient id="paint15_linear_1_11" x1="107.083" y1="114.975" x2="50.3481" y2="-24.8024" gradientUnits="userSpaceOnUse">
<stop stop-color="#FFA434"/>
<stop offset="1" stop-color="#FFA434"/>
</linearGradient>
<linearGradient id="paint16_linear_1_11" x1="38.8888" y1="135.239" x2="-17.8474" y2="-4.53997" gradientUnits="userSpaceOnUse">
<stop stop-color="#FFA434"/>
<stop offset="1" stop-color="#FFA434"/>
</linearGradient>
<linearGradient id="paint17_linear_1_11" x1="38.8888" y1="135.239" x2="-17.8474" y2="-4.53987" gradientUnits="userSpaceOnUse">
<stop stop-color="#FFA434"/>
<stop offset="1" stop-color="#FFA434"/>
</linearGradient>
<linearGradient id="paint18_linear_1_11" x1="61.6201" y1="135.239" x2="4.884" y2="-4.53973" gradientUnits="userSpaceOnUse">
<stop stop-color="#FFA434"/>
<stop offset="1" stop-color="#FFA434"/>
</linearGradient>
<linearGradient id="paint19_linear_1_11" x1="61.6205" y1="135.239" x2="4.88436" y2="-4.53992" gradientUnits="userSpaceOnUse">
<stop stop-color="#FFA434"/>
<stop offset="1" stop-color="#FFA434"/>
</linearGradient>
<linearGradient id="paint20_linear_1_11" x1="84.3515" y1="135.239" x2="27.6153" y2="-4.53973" gradientUnits="userSpaceOnUse">
<stop stop-color="#FFA434"/>
<stop offset="1" stop-color="#FFA434"/>
</linearGradient>
<linearGradient id="paint21_linear_1_11" x1="84.3522" y1="135.239" x2="27.6161" y2="-4.53994" gradientUnits="userSpaceOnUse">
<stop stop-color="#FFA434"/>
<stop offset="1" stop-color="#FFA434"/>
</linearGradient>
<linearGradient id="paint22_linear_1_11" x1="107.083" y1="135.239" x2="50.3465" y2="-4.53973" gradientUnits="userSpaceOnUse">
<stop stop-color="#FFA434"/>
<stop offset="1" stop-color="#FFA434"/>
</linearGradient>
<linearGradient id="paint23_linear_1_11" x1="107.083" y1="135.239" x2="50.3471" y2="-4.53994" gradientUnits="userSpaceOnUse">
<stop stop-color="#FFA434"/>
<stop offset="1" stop-color="#FFA434"/>
</linearGradient>
<linearGradient id="paint24_linear_1_11" x1="38.8888" y1="155.544" x2="-17.8474" y2="15.765" gradientUnits="userSpaceOnUse">
<stop stop-color="#FFA434"/>
<stop offset="1" stop-color="#FFA434"/>
</linearGradient>
<linearGradient id="paint25_linear_1_11" x1="38.8888" y1="155.543" x2="-17.8474" y2="15.7647" gradientUnits="userSpaceOnUse">
<stop stop-color="#FFA434"/>
<stop offset="1" stop-color="#FFA434"/>
</linearGradient>
<linearGradient id="paint26_linear_1_11" x1="61.6201" y1="155.544" x2="4.884" y2="15.7649" gradientUnits="userSpaceOnUse">
<stop stop-color="#FFA434"/>
<stop offset="1" stop-color="#FFA434"/>
</linearGradient>
<linearGradient id="paint27_linear_1_11" x1="61.6205" y1="155.543" x2="4.88436" y2="15.7647" gradientUnits="userSpaceOnUse">
<stop stop-color="#FFA434"/>
<stop offset="1" stop-color="#FFA434"/>
</linearGradient>
<linearGradient id="paint28_linear_1_11" x1="84.3515" y1="155.544" x2="27.6153" y2="15.7649" gradientUnits="userSpaceOnUse">
<stop stop-color="#FFA434"/>
<stop offset="1" stop-color="#FFA434"/>
</linearGradient>
<linearGradient id="paint29_linear_1_11" x1="84.3522" y1="155.543" x2="27.6161" y2="15.7646" gradientUnits="userSpaceOnUse">
<stop stop-color="#FFA434"/>
<stop offset="1" stop-color="#FFA434"/>
</linearGradient>
<linearGradient id="paint30_linear_1_11" x1="107.083" y1="155.544" x2="50.3465" y2="15.7649" gradientUnits="userSpaceOnUse">
<stop stop-color="#FFA434"/>
<stop offset="1" stop-color="#FFA434"/>
</linearGradient>
<linearGradient id="paint31_linear_1_11" x1="107.083" y1="155.543" x2="50.3471" y2="15.7646" gradientUnits="userSpaceOnUse">
<stop stop-color="#FFA434"/>
<stop offset="1" stop-color="#FFA434"/>
</linearGradient>
</defs>
</svg>
